<?xml version="1.0" encoding="utf-8"?>
<!-- Generator: Adobe Illustrator 21.0.2, SVG Export Plug-In . SVG Version: 6.00 Build 0)  -->
<svg version="1.1" id="Layer_1" xmlns="http://www.w3.org/2000/svg" xmlns:xlink="http://www.w3.org/1999/xlink" x="0px" y="0px"
	 viewBox="0 0 333.9 49" style="enable-background:new 0 0 333.9 49;" xml:space="preserve">
<style type="text/css">
	.st0{fill:#ED6939;}
	.st1{fill:#2D3B45;}
</style>
<g>
	<path class="st0" d="M28.3,20.1l-2,2.3l-9.4,10.4c-1.3,1.4-3.4,1.4-4.6,0c-1.3-1.4-1.3-3.7,0-5.1l9.4-10.4l2-2.3l0.7-0.8
		c1.7-1.9,1.7-5,0-6.8l0,0c-1.7-1.9-4.4-1.9-6.1,0l-0.7,0.8l-2,2.3L6.1,20.9c-4.7,5.1-4.7,13.6,0,18.7l0,0c4.7,5.1,12.3,5.1,16.9,0
		l9.4-10.4l2-2.3l0.7-0.8c1.7-1.9,1.7-5,0-6.8l0,0c-1.7-1.9-4.4-1.9-6.1,0L28.3,20.1z"/>
	<path class="st1" d="M50.2,42.1L50.2,42.1c1.7,1.9,4.4,1.9,6.1,0L78.1,18c1.7-1.9,1.7-5,0-6.8l0,0c-1.7-1.9-4.4-1.9-6.1,0
		L50.2,35.3C48.6,37.2,48.5,40.2,50.2,42.1z"/>
	<path class="st1" d="M32.4,42.1L32.4,42.1c1.7,1.9,4.4,1.9,6.1,0l18.1-20c1.7-1.9,1.7-5,0-6.8l0,0c-1.7-1.9-4.4-1.9-6.1,0l-18.1,20
		C30.8,37.2,30.8,40.2,32.4,42.1z"/>
	<path class="st1" d="M68.2,42.1L68.2,42.1c1.7,1.9,4.4,1.9,6.1,0l25.2-27.9c1.7-1.9,1.7-5,0-6.8l0,0c-1.7-1.9-4.4-1.9-6.1,0
		L68.2,35.3C66.6,37.2,66.6,40.2,68.2,42.1z"/>
</g>
<g>
	<path class="st1" d="M166.6,22.5c0.2,0,0.5-0.1,0.7-0.1c0.2,0,0.5,0,0.7,0c0.3,0,0.5,0,0.8,0c0.3,0,0.5,0.1,0.7,0.1V39
		c-0.2,0-0.5,0.1-0.7,0.1c-0.3,0-0.5,0-0.7,0c-0.3,0-0.5,0-0.8,0c-0.3,0-0.5,0-0.7-0.1V22.5z"/>
	<path class="st1" d="M174.7,22.5c0.2,0,0.4-0.1,0.7-0.1c0.2,0,0.4,0,0.7,0c0.5,0,1,0,1.4,0.1l8.1,11.9V22.5c0.2,0,0.4-0.1,0.6-0.1
		c0.2,0,0.5,0,0.7,0c0.3,0,0.6,0,0.8,0c0.2,0,0.4,0.1,0.5,0.1V39c-0.2,0-0.4,0.1-0.6,0.1c-0.2,0-0.4,0-0.6,0c-0.5,0-1,0-1.4-0.1
		l-8.1-11.8V39c-0.2,0-0.4,0.1-0.7,0.1c-0.2,0-0.5,0-0.7,0c-0.2,0-0.4,0-0.7,0c-0.2,0-0.4,0-0.6-0.1V22.5z"/>
	<path class="st1" d="M193.3,22.5c0.2,0,0.4-0.1,0.7-0.1c0.2,0,0.4,0,0.7,0c0.5,0,1,0,1.4,0.1l8.1,11.9V22.5c0.2,0,0.4-0.1,0.6-0.1
		c0.2,0,0.5,0,0.7,0c0.3,0,0.6,0,0.8,0c0.2,0,0.4,0.1,0.5,0.1V39c-0.2,0-0.4,0.1-0.6,0.1c-0.2,0-0.4,0-0.6,0c-0.5,0-1,0-1.4-0.1
		L196,27.2V39c-0.2,0-0.4,0.1-0.7,0.1c-0.2,0-0.5,0-0.7,0c-0.2,0-0.4,0-0.7,0c-0.2,0-0.4,0-0.6-0.1V22.5z"/>
	<path class="st1" d="M218.4,39.3c-1.2,0-2.2-0.2-3.2-0.6s-1.7-1-2.4-1.8c-0.6-0.8-1.1-1.7-1.5-2.7c-0.3-1-0.5-2.2-0.5-3.4
		s0.2-2.4,0.5-3.4c0.3-1.1,0.8-2,1.5-2.7c0.6-0.8,1.4-1.4,2.4-1.8s2-0.6,3.2-0.6s2.2,0.2,3.2,0.6c0.9,0.4,1.7,1,2.4,1.8
		c0.6,0.8,1.1,1.7,1.5,2.7c0.3,1.1,0.5,2.2,0.5,3.4s-0.2,2.4-0.5,3.4c-0.3,1-0.8,1.9-1.5,2.7c-0.6,0.8-1.4,1.4-2.4,1.8
		C220.6,39.1,219.6,39.3,218.4,39.3z M218.4,36.8c1.4,0,2.5-0.5,3.3-1.6c0.8-1.1,1.2-2.6,1.2-4.5c0-1.9-0.4-3.4-1.2-4.5
		c-0.8-1.1-1.9-1.6-3.3-1.6s-2.5,0.5-3.3,1.6s-1.2,2.6-1.2,4.5c0,1.9,0.4,3.4,1.2,4.5C215.9,36.3,217,36.8,218.4,36.8z"/>
	<path class="st1" d="M227.4,22.5c0.3,0,0.6-0.1,0.8-0.1c0.3,0,0.5,0,0.8,0c0.2,0,0.5,0,0.8,0c0.3,0,0.6,0.1,0.8,0.1l4.5,13.6
		l4.4-13.7c0.2,0,0.5-0.1,0.8-0.1c0.3,0,0.5,0,0.8,0c0.2,0,0.5,0,0.8,0c0.3,0,0.5,0.1,0.8,0.1L236.7,39c-0.3,0-0.5,0.1-0.9,0.1
		c-0.3,0-0.6,0-0.8,0c-0.2,0-0.5,0-0.8,0c-0.3,0-0.6,0-0.9-0.1L227.4,22.5z"/>
	<path class="st1" d="M248.1,22.5c0.3,0,0.6-0.1,0.9-0.1c0.3,0,0.6,0,0.9,0c0.2,0,0.5,0,0.8,0c0.3,0,0.6,0.1,0.8,0.1l5.9,16.5
		c-0.2,0-0.4,0.1-0.8,0.1c-0.3,0-0.6,0-0.8,0c-0.3,0-0.6,0-0.8,0c-0.3,0-0.6,0-0.8-0.1l-1.1-3.4h-6.8l-1.1,3.4
		c-0.3,0-0.5,0.1-0.8,0.1c-0.3,0-0.6,0-0.8,0c-0.2,0-0.5,0-0.7,0c-0.3,0-0.5,0-0.7-0.1L248.1,22.5z M252.4,33.2l-2.7-8.2l-2.6,8.2
		H252.4z"/>
	<path class="st1" d="M261.8,25h-5.2c-0.1-0.3-0.1-0.8-0.1-1.3c0-0.2,0-0.4,0-0.6c0-0.2,0-0.4,0.1-0.6H270c0.1,0.4,0.1,0.8,0.1,1.2
		c0,0.5,0,0.9-0.1,1.3h-5.2v14H264c-0.1,0-0.1,0-0.2,0s-0.2,0-0.2,0c-0.3,0-0.6,0-0.9,0c-0.3,0-0.6,0-0.9,0V25z"/>
	<path class="st1" d="M273,22.5c0.2,0,0.5-0.1,0.7-0.1c0.2,0,0.5,0,0.7,0c0.3,0,0.5,0,0.8,0c0.3,0,0.5,0.1,0.7,0.1V39
		c-0.2,0-0.5,0.1-0.7,0.1c-0.3,0-0.5,0-0.7,0c-0.3,0-0.5,0-0.8,0c-0.3,0-0.5,0-0.7-0.1V22.5z"/>
	<path class="st1" d="M287.6,39.3c-1.2,0-2.2-0.2-3.2-0.6s-1.7-1-2.4-1.8c-0.6-0.8-1.1-1.7-1.5-2.7c-0.3-1-0.5-2.2-0.5-3.4
		s0.2-2.4,0.5-3.4c0.3-1.1,0.8-2,1.5-2.7c0.6-0.8,1.4-1.4,2.4-1.8s2-0.6,3.2-0.6s2.2,0.2,3.2,0.6c0.9,0.4,1.7,1,2.4,1.8
		c0.6,0.8,1.1,1.7,1.5,2.7c0.3,1.1,0.5,2.2,0.5,3.4s-0.2,2.4-0.5,3.4c-0.3,1-0.8,1.9-1.5,2.7c-0.6,0.8-1.4,1.4-2.4,1.8
		C289.9,39.1,288.8,39.3,287.6,39.3z M287.6,36.8c1.4,0,2.5-0.5,3.3-1.6c0.8-1.1,1.2-2.6,1.2-4.5c0-1.9-0.4-3.4-1.2-4.5
		c-0.8-1.1-1.9-1.6-3.3-1.6s-2.5,0.5-3.3,1.6s-1.2,2.6-1.2,4.5c0,1.9,0.4,3.4,1.2,4.5C285.1,36.3,286.2,36.8,287.6,36.8z"/>
	<path class="st1" d="M299.3,22.5c0.2,0,0.4-0.1,0.7-0.1c0.2,0,0.4,0,0.7,0c0.5,0,1,0,1.4,0.1l8.1,11.9V22.5c0.2,0,0.4-0.1,0.6-0.1
		c0.2,0,0.5,0,0.7,0c0.3,0,0.6,0,0.8,0c0.2,0,0.4,0.1,0.5,0.1V39c-0.2,0-0.4,0.1-0.6,0.1c-0.2,0-0.4,0-0.6,0c-0.5,0-1,0-1.4-0.1
		l-8.1-11.8V39c-0.2,0-0.4,0.1-0.7,0.1c-0.2,0-0.5,0-0.7,0c-0.2,0-0.4,0-0.7,0c-0.2,0-0.4,0-0.6-0.1V22.5z"/>
	<path class="st1" d="M316.6,38.4c0-0.4,0.1-0.8,0.2-1.2s0.3-0.8,0.4-1.2c0.6,0.2,1.2,0.4,2,0.6c0.7,0.2,1.5,0.3,2.2,0.3
		c1.3,0,2.3-0.2,2.8-0.7c0.6-0.5,0.8-1,0.8-1.7c0-0.7-0.2-1.2-0.6-1.6c-0.4-0.4-1-0.7-1.7-0.9l-1.7-0.6c-0.7-0.3-1.3-0.5-1.8-0.8
		c-0.5-0.3-0.9-0.6-1.2-0.9s-0.6-0.7-0.7-1.2c-0.2-0.4-0.2-1-0.2-1.5c0-0.7,0.1-1.3,0.4-1.8c0.3-0.6,0.6-1.1,1.1-1.5
		c0.5-0.4,1.1-0.8,1.8-1c0.7-0.2,1.5-0.4,2.5-0.4c0.7,0,1.5,0.1,2.3,0.2c0.9,0.2,1.6,0.4,2.3,0.6c0,0.4-0.1,0.8-0.2,1.2
		c-0.1,0.4-0.2,0.8-0.4,1.2c-0.5-0.2-1.1-0.4-1.8-0.6c-0.7-0.2-1.4-0.3-2-0.3c-1,0-1.7,0.2-2.2,0.5s-0.7,0.9-0.7,1.5
		s0.2,1.1,0.6,1.4c0.4,0.3,0.9,0.5,1.5,0.8l2.1,0.8c0.5,0.2,1,0.4,1.5,0.7c0.5,0.3,0.9,0.6,1.2,0.9c0.4,0.4,0.6,0.8,0.8,1.2
		c0.2,0.5,0.3,1.1,0.3,1.7c0,0.8-0.1,1.5-0.4,2.1s-0.7,1.2-1.3,1.7c-0.6,0.5-1.3,0.8-2.1,1.1s-1.8,0.4-2.9,0.4
		c-0.9,0-1.8-0.1-2.5-0.2C318,38.9,317.3,38.7,316.6,38.4z"/>
</g>
<g>
	<path class="st0" d="M122.9,12.3c0.3,0,0.6-0.1,0.9-0.1c0.3,0,0.6,0,1,0c0.3,0,0.6,0,1,0c0.3,0,0.6,0.1,0.9,0.1v23.4h10.5
		c0,0.3,0.1,0.6,0.1,0.9c0,0.3,0,0.6,0,0.8c0,0.6,0,1.2-0.1,1.7h-14.2V12.3z"/>
	<path class="st0" d="M140.6,35c0.8,0.3,1.7,0.6,2.6,0.8s2,0.3,3.3,0.3c2,0,3.6-0.4,4.6-1.2c1-0.8,1.5-2,1.5-3.4
		c0-0.7-0.1-1.3-0.3-1.8c-0.2-0.5-0.5-0.9-0.9-1.3c-0.4-0.4-0.9-0.7-1.6-1c-0.6-0.3-1.4-0.6-2.2-1l-2.1-0.9c-0.7-0.3-1.4-0.6-2-1
		c-0.6-0.4-1.1-0.8-1.5-1.3s-0.8-1.1-1-1.8c-0.2-0.7-0.4-1.5-0.4-2.4c0-2.3,0.8-4,2.3-5.3c1.5-1.3,3.7-1.9,6.5-1.9
		c1.2,0,2.3,0.1,3.4,0.3c1.1,0.2,2,0.4,2.8,0.7c-0.1,1-0.4,2.1-0.8,3.1c-0.7-0.2-1.4-0.5-2.3-0.7c-0.9-0.2-1.9-0.3-3-0.3
		c-1.6,0-2.8,0.3-3.6,0.9c-0.8,0.6-1.3,1.6-1.3,2.8c0,0.5,0.1,1,0.3,1.4c0.2,0.4,0.5,0.8,0.8,1.1c0.3,0.3,0.8,0.6,1.2,0.8
		c0.5,0.2,1,0.5,1.5,0.7l2.1,0.8c1,0.4,1.9,0.8,2.6,1.2c0.8,0.4,1.4,0.9,2,1.5c0.5,0.6,1,1.3,1.2,2.1c0.3,0.8,0.4,1.7,0.4,2.8
		c0,2.6-0.9,4.6-2.6,6c-1.8,1.5-4.2,2.2-7.4,2.2c-0.8,0-1.5,0-2.1-0.1c-0.6-0.1-1.2-0.1-1.7-0.2c-0.5-0.1-1-0.2-1.5-0.4
		s-1-0.3-1.5-0.5c0-0.5,0.2-1.1,0.3-1.7C140.2,36.1,140.4,35.6,140.6,35z"/>
</g>
</svg>
